<?xml version="1.0" encoding="utf-8"?>
<!-- Generator: Adobe Illustrator 26.5.0, SVG Export Plug-In . SVG Version: 6.00 Build 0)  -->
<svg version="1.1" id="Layer_1" xmlns="http://www.w3.org/2000/svg" xmlns:xlink="http://www.w3.org/1999/xlink" x="0px" y="0px"
	 viewBox="0 0 105 105" style="enable-background:new 0 0 105 105;" xml:space="preserve">
<style type="text/css">
	.st0{fill-rule:evenodd;clip-rule:evenodd;fill:#4B833A;}
	.st1{fill:none;stroke:#FFFFFF;stroke-width:2;}
	.st2{fill:#FFFFFF;}
	.st3{fill-rule:evenodd;clip-rule:evenodd;fill:#FFFFFF;}
</style>
<g>
	<circle class="st0" cx="52.5" cy="52.5" r="52.5"/>
	<line class="st1" x1="19.28" y1="82.35" x2="86.33" y2="82.66"/>
	<path class="st2" d="M32.91,48.39c0.01-1.27-1.01-2.31-2.28-2.32c-1.27-0.01-2.31,1.01-2.32,2.28c-0.01,1.27,1.01,2.31,2.28,2.32
		C31.86,50.67,32.89,49.66,32.91,48.39z M31.07,82.05l0.31-33.68l-1.53-0.01l-0.31,33.68L31.07,82.05z"/>
	<path class="st2" d="M41.78,63.1c0.02-1.27-0.99-2.31-2.26-2.33c-1.27-0.02-2.31,0.99-2.33,2.26c-0.02,1.27,0.99,2.31,2.26,2.33
		C40.72,65.38,41.76,64.37,41.78,63.1z M39.95,82.06l0.31-18.98l-1.53-0.02l-0.31,18.98L39.95,82.06z"/>
	<path class="st2" d="M50.66,74.48c0.05-1.27-0.94-2.34-2.2-2.39c-1.27-0.05-2.34,0.94-2.39,2.2c-0.05,1.27,0.94,2.34,2.2,2.39
		C49.54,76.74,50.61,75.75,50.66,74.48z M48.83,82.07l0.31-7.65l-1.53-0.06l-0.31,7.65L48.83,82.07z"/>
	<path class="st2" d="M59.23,70.78c0.03-1.27-0.97-2.32-2.23-2.36c-1.27-0.03-2.32,0.97-2.36,2.23c-0.03,1.27,0.97,2.32,2.23,2.36
		C58.14,73.05,59.2,72.05,59.23,70.78z M57.4,82.06l0.31-11.33l-1.53-0.04l-0.31,11.33L57.4,82.06z"/>
	<path class="st2" d="M68.11,77.6c0.08-1.27-0.87-2.36-2.14-2.44c-1.27-0.08-2.36,0.87-2.44,2.14c-0.08,1.27,0.87,2.36,2.14,2.44
		C66.93,79.83,68.02,78.87,68.11,77.6z M66.28,82.09l0.31-4.59l-1.53-0.1l-0.31,4.59L66.28,82.09z"/>
	<path class="st2" d="M76.69,63.1c0.02-1.27-0.99-2.31-2.26-2.33c-1.27-0.02-2.31,0.99-2.33,2.26c-0.02,1.27,0.99,2.31,2.26,2.33
		C75.62,65.38,76.67,64.37,76.69,63.1z M74.85,82.06l0.31-18.98l-1.53-0.02l-0.31,18.98L74.85,82.06z"/>
	<path class="st2" d="M85.56,77.6c0.08-1.27-0.87-2.36-2.14-2.44c-1.27-0.08-2.36,0.87-2.44,2.14s0.87,2.36,2.14,2.44
		C84.38,79.83,85.48,78.87,85.56,77.6z M83.73,82.09l0.31-4.59l-1.53-0.1l-0.31,4.59L83.73,82.09z"/>
	<path class="st2" d="M24.33,70.78c0.03-1.27-0.97-2.32-2.23-2.36c-1.27-0.03-2.32,0.97-2.36,2.23c-0.03,1.27,0.97,2.32,2.23,2.36
		C23.24,73.05,24.3,72.05,24.33,70.78z M22.5,82.06l0.31-11.33l-1.53-0.04l-0.31,11.33L22.5,82.06z"/>
	<g>
		<path class="st3" d="M35.29,32.87c-0.05,0-0.09,0.04-0.09,0.09v4.6c0,0.05,0.04,0.09,0.09,0.09H64.6c0.05,0,0.09-0.04,0.09-0.09
			v-4.6c0-0.05-0.04-0.09-0.09-0.09H35.29z M68.5,32.87c-0.05,0-0.09,0.04-0.09,0.09v4.61c0,0.05,0.04,0.09,0.09,0.09h1.22
			c0.05,0,0.09-0.04,0.09-0.09v-4.61c0-0.05-0.04-0.09-0.09-0.09H68.5z M65.93,32.87c-0.05,0-0.09,0.04-0.09,0.09v4.61
			c0,0.05,0.04,0.09,0.09,0.09h1.22c0.05,0,0.09-0.04,0.09-0.09v-4.61c0-0.05-0.04-0.09-0.09-0.09H65.93z M57.78,14.34
			c-0.32-0.02-0.59,0.22-0.61,0.53c-0.02,0.31,0.21,0.59,0.53,0.61c2.03,0.14,3.63,1.85,3.63,3.9c0,1.02-0.39,1.98-1.09,2.72
			c-0.16,0.17-0.2,0.41-0.11,0.62c0.09,0.21,0.29,0.35,0.52,0.35l2.75,0c0.19-0.01,4.65-0.16,5.05,5.37v2.5
			c0,0.32,0.25,0.57,0.57,0.57c0.31,0,0.57-0.26,0.57-0.57v-2.52c0-0.01,0-0.02,0-0.04c-0.47-6.69-6.19-6.45-6.22-6.45h-1.58
			c0.44-0.76,0.68-1.64,0.68-2.54C62.47,16.73,60.41,14.52,57.78,14.34z M55.87,12.55c-0.17,0-0.22,0.01-0.32,0.02l-0.1,0.01
			c-2.37,0.3-4.16,2.33-4.16,4.73c0,2.38,1.82,4.29,4.24,4.56c-0.05,1.57,0.33,2.81,1.12,3.69c1.13,1.25,2.67,1.27,2.75,1.27
			l4.12-0.07c2.17,0,2.41,1.74,2.44,2.02v2.14c0,0.32,0.25,0.57,0.57,0.57c0.32,0,0.57-0.26,0.57-0.57v-2.2
			c-0.07-1.07-0.9-3.1-3.59-3.1L59.4,25.7c-0.01,0-1.12-0.03-1.9-0.9c-0.67-0.74-0.94-1.89-0.8-3.41c0.02-0.16-0.04-0.32-0.15-0.44
			c-0.11-0.12-0.26-0.18-0.42-0.18c-2.08,0-3.7-1.52-3.7-3.45c0-1.82,1.36-3.37,3.16-3.6c0.06-0.01,0.1-0.01,0.13-0.02
			c0.04-0.01,0.07-0.01,0.15-0.01c0.31,0,0.57-0.26,0.57-0.57C56.44,12.8,56.18,12.55,55.87,12.55z"/>
	</g>
</g>
</svg>
