<?xml version="1.0" encoding="utf-8"?>
<!-- Generator: Adobe Illustrator 26.5.0, SVG Export Plug-In . SVG Version: 6.00 Build 0)  -->
<svg version="1.1" id="Layer_1" xmlns="http://www.w3.org/2000/svg" xmlns:xlink="http://www.w3.org/1999/xlink" x="0px" y="0px"
	 viewBox="0 0 105 105" style="enable-background:new 0 0 105 105;" xml:space="preserve">
<style type="text/css">
	.st0{fill-rule:evenodd;clip-rule:evenodd;fill:#837244;}
	.st1{fill:#FFFFFF;}
</style>
<g>
	<circle class="st0" cx="52.5" cy="52.5" r="52.5"/>
	<rect x="19.88" y="21.93" class="st1" width="6.67" height="6.67"/>
	<rect x="28.57" y="21.93" class="st1" width="6.67" height="6.67"/>
	<rect x="37.27" y="21.93" class="st1" width="6.67" height="6.67"/>
	<rect x="45.96" y="21.93" class="st1" width="6.67" height="6.67"/>
	<rect x="54.66" y="21.93" class="st1" width="6.67" height="6.67"/>
	<rect x="63.36" y="21.93" class="st1" width="6.67" height="6.67"/>
	<rect x="72.05" y="21.93" class="st1" width="6.67" height="6.67"/>
	<rect x="80.75" y="21.93" class="st1" width="6.67" height="6.67"/>
	<rect x="19.88" y="30.63" class="st1" width="6.67" height="6.67"/>
	<rect x="28.57" y="30.63" class="st1" width="6.67" height="6.67"/>
	<rect x="37.27" y="30.63" class="st1" width="6.67" height="6.67"/>
	<rect x="45.96" y="30.63" class="st1" width="6.67" height="6.67"/>
	<rect x="54.66" y="30.63" class="st1" width="6.67" height="6.67"/>
	<rect x="63.36" y="30.63" class="st1" width="6.67" height="6.67"/>
	<rect x="72.05" y="30.63" class="st1" width="6.67" height="6.67"/>
	<rect x="80.75" y="30.63" class="st1" width="6.67" height="6.67"/>
	<rect x="19.88" y="39.33" class="st1" width="6.67" height="6.67"/>
	<rect x="28.57" y="39.33" class="st1" width="6.67" height="6.67"/>
	<rect x="37.27" y="39.33" class="st1" width="6.67" height="6.67"/>
	<rect x="45.96" y="39.33" class="st1" width="6.67" height="6.67"/>
	<rect x="54.66" y="39.33" class="st1" width="6.67" height="6.67"/>
	<rect x="63.36" y="39.33" class="st1" width="6.67" height="6.67"/>
	<rect x="72.05" y="39.33" class="st1" width="6.67" height="6.67"/>
	<rect x="80.75" y="39.33" class="st1" width="6.67" height="6.67"/>
	<rect x="19.88" y="48.02" class="st1" width="6.67" height="6.67"/>
	<rect x="28.57" y="48.02" class="st1" width="6.67" height="6.67"/>
	<rect x="37.27" y="48.02" class="st1" width="6.67" height="6.67"/>
	<rect x="45.96" y="48.02" class="st1" width="6.67" height="6.67"/>
	<rect x="54.66" y="48.02" class="st1" width="6.67" height="6.67"/>
	<rect x="63.36" y="48.02" class="st1" width="6.67" height="6.67"/>
	<rect x="72.05" y="48.02" class="st1" width="6.67" height="6.67"/>
	<rect x="80.75" y="48.02" class="st1" width="6.67" height="6.67"/>
	<rect x="19.88" y="56.72" class="st1" width="6.67" height="6.67"/>
	<rect x="28.57" y="56.72" class="st1" width="6.67" height="6.67"/>
	<rect x="37.27" y="56.72" class="st1" width="6.67" height="6.67"/>
	<rect x="45.96" y="56.72" class="st1" width="6.67" height="6.67"/>
	<rect x="54.66" y="56.72" class="st1" width="6.67" height="6.67"/>
	<rect x="63.36" y="56.72" class="st1" width="6.67" height="6.67"/>
	<rect x="72.05" y="56.72" class="st1" width="6.67" height="6.67"/>
	<rect x="80.75" y="56.72" class="st1" width="6.67" height="6.67"/>
	<rect x="19.88" y="65.41" class="st1" width="6.67" height="6.67"/>
	<rect x="28.57" y="65.41" class="st1" width="6.67" height="6.67"/>
	<rect x="37.27" y="65.41" class="st1" width="6.67" height="6.67"/>
	<rect x="45.96" y="65.41" class="st1" width="6.67" height="6.67"/>
	<rect x="54.66" y="65.41" class="st1" width="6.67" height="6.67"/>
	<rect x="63.36" y="65.41" class="st1" width="6.67" height="6.67"/>
	<rect x="72.05" y="65.41" class="st1" width="6.67" height="6.67"/>
	<rect x="80.75" y="65.41" class="st1" width="6.67" height="6.67"/>
	<rect x="19.88" y="74.11" class="st1" width="6.67" height="6.67"/>
	<rect x="28.57" y="74.11" class="st1" width="6.67" height="6.67"/>
	<rect x="37.27" y="74.11" class="st1" width="6.67" height="6.67"/>
	<rect x="45.96" y="74.11" class="st1" width="6.67" height="6.67"/>
	<rect x="54.66" y="74.11" class="st1" width="6.67" height="6.67"/>
	<rect x="63.36" y="74.11" class="st1" width="6.67" height="6.67"/>
	<rect x="72.05" y="74.11" class="st1" width="6.67" height="6.67"/>
	<rect x="80.75" y="74.11" class="st1" width="6.67" height="6.67"/>
	<path class="st1" d="M76.4,83.09l3.48,1.74l-3.48,1.74V83.09z M27.41,84.25l49.57,0v1.16l-49.57,0V84.25z"/>
	<path class="st1" d="M16.66,39.63l-1.71-3.49l-1.77,3.46L16.66,39.63z M15.24,66.87l0.26-27.83l-1.16-0.01l-0.26,27.83L15.24,66.87
		z"/>
</g>
</svg>
