<?xml version="1.0" encoding="utf-8"?>
<!-- Generator: Adobe Illustrator 26.5.0, SVG Export Plug-In . SVG Version: 6.00 Build 0)  -->
<svg version="1.1" id="Layer_1" xmlns="http://www.w3.org/2000/svg" xmlns:xlink="http://www.w3.org/1999/xlink" x="0px" y="0px"
	 viewBox="0 0 105 105" style="enable-background:new 0 0 105 105;" xml:space="preserve">
<style type="text/css">
	.st0{fill-rule:evenodd;clip-rule:evenodd;fill:#42688B;}
	.st1{fill:none;stroke:#FFFFFF;stroke-width:3;}
	.st2{fill:#FFFFFF;}
</style>
<g>
	<circle class="st0" cx="52.5" cy="52.5" r="52.5"/>
	<line class="st1" x1="15.32" y1="39.38" x2="89.37" y2="39.69"/>
	<path class="st2" d="M27.5,31.99c0.06-1.55-1.15-2.86-2.7-2.92s-2.86,1.15-2.92,2.7c-0.06,1.55,1.15,2.86,2.7,2.92
		S27.44,33.54,27.5,31.99z M25.31,39.73l0.31-7.81l-1.87-0.07l-0.31,7.81L25.31,39.73z"/>
	<path class="st2" d="M38.75,16.6c0.02-1.55-1.22-2.83-2.77-2.85c-1.55-0.02-2.83,1.22-2.85,2.77c-0.02,1.55,1.22,2.83,2.77,2.85
		C37.45,19.4,38.73,18.16,38.75,16.6z M36.56,39.7l0.31-23.12L35,16.55l-0.31,23.12L36.56,39.7z"/>
	<path class="st2" d="M50,26.63c0.04-1.55-1.19-2.84-2.74-2.88c-1.55-0.04-2.84,1.19-2.88,2.74c-0.04,1.55,1.19,2.84,2.74,2.88
		C48.67,29.41,49.96,28.18,50,26.63z M47.81,39.71l0.31-13.12l-1.87-0.04l-0.31,13.12L47.81,39.71z"/>
	<path class="st2" d="M60.94,11.91c0.02-1.55-1.23-2.83-2.78-2.84c-1.55-0.02-2.83,1.23-2.84,2.78c-0.02,1.55,1.23,2.83,2.78,2.84
		C59.65,14.71,60.92,13.46,60.94,11.91z M58.75,39.7l0.31-27.81l-1.87-0.02l-0.31,27.81L58.75,39.7z"/>
	<path class="st2" d="M72.19,26.63c0.04-1.55-1.19-2.84-2.74-2.88c-1.55-0.04-2.84,1.19-2.88,2.74c-0.04,1.55,1.19,2.84,2.74,2.88
		C70.86,29.41,72.15,28.18,72.19,26.63z M70,39.71l0.31-13.12l-1.87-0.04l-0.31,13.12L70,39.71z"/>
	<path class="st2" d="M83.43,21.93c0.03-1.55-1.21-2.83-2.76-2.86s-2.83,1.21-2.86,2.76c-0.03,1.55,1.21,2.83,2.76,2.86
		C82.13,24.72,83.41,23.48,83.43,21.93z M81.25,39.71l0.31-17.81l-1.87-0.03l-0.31,17.81L81.25,39.71z"/>
	<line class="st1" x1="15.32" y1="79.37" x2="89.37" y2="79.69"/>
	<path class="st2" d="M27.5,71.99c0.06-1.55-1.15-2.86-2.7-2.92s-2.86,1.15-2.92,2.7c-0.06,1.55,1.15,2.86,2.7,2.92
		C26.13,74.75,27.44,73.54,27.5,71.99z M25.31,79.72l0.31-7.81l-1.87-0.07l-0.31,7.81L25.31,79.72z"/>
	<path class="st2" d="M38.75,61.92c0.03-1.55-1.21-2.83-2.76-2.86c-1.55-0.03-2.83,1.21-2.86,2.76c-0.03,1.55,1.21,2.83,2.76,2.86
		C37.44,64.71,38.72,63.48,38.75,61.92z M36.56,79.7l0.31-17.81L35,61.86l-0.31,17.81L36.56,79.7z"/>
	<path class="st2" d="M50,61.92c0.03-1.55-1.21-2.83-2.76-2.86c-1.55-0.03-2.83,1.21-2.86,2.76c-0.03,1.55,1.21,2.83,2.76,2.86
		C48.69,64.71,49.97,63.48,50,61.92z M47.81,79.7l0.31-17.81l-1.87-0.03l-0.31,17.81L47.81,79.7z"/>
	<path class="st2" d="M60.94,51.91c0.02-1.55-1.23-2.83-2.78-2.84c-1.55-0.02-2.83,1.23-2.84,2.78c-0.02,1.55,1.23,2.83,2.78,2.84
		C59.65,54.7,60.92,53.46,60.94,51.91z M58.75,79.7l0.31-27.81l-1.87-0.02l-0.31,27.81L58.75,79.7z"/>
	<path class="st2" d="M72.18,71.99c0.06-1.55-1.15-2.86-2.7-2.92c-1.55-0.06-2.86,1.15-2.92,2.7c-0.06,1.55,1.15,2.86,2.7,2.92
		C70.81,74.75,72.12,73.54,72.18,71.99z M70,79.72l0.31-7.81l-1.87-0.07l-0.31,7.81L70,79.72z"/>
	<path class="st2" d="M83.43,61.92c0.03-1.55-1.21-2.83-2.76-2.86c-1.55-0.03-2.83,1.21-2.86,2.76c-0.03,1.55,1.21,2.83,2.76,2.86
		C82.13,64.71,83.41,63.48,83.43,61.92z M81.25,79.7l0.31-17.81l-1.87-0.03l-0.31,17.81L81.25,79.7z"/>
</g>
</svg>
