<?xml version="1.0" encoding="utf-8"?>
<!-- Generator: Adobe Illustrator 26.5.0, SVG Export Plug-In . SVG Version: 6.00 Build 0)  -->
<svg version="1.1" id="Layer_1" xmlns="http://www.w3.org/2000/svg" xmlns:xlink="http://www.w3.org/1999/xlink" x="0px" y="0px"
	 viewBox="0 0 55 54.49" style="enable-background:new 0 0 55 54.49;" xml:space="preserve">
<style type="text/css">
	.st0{fill:#8E4B86;}
</style>
<path class="st0" d="M53.83,47.66l-9.04-9.04c2.77-3.98,4.4-8.81,4.4-14.02C49.2,11.03,38.16,0,24.6,0S0,11.03,0,24.6
	s11.03,24.6,24.6,24.6c5.47,0,10.53-1.8,14.62-4.83l8.95,8.95c0.78,0.78,1.8,1.17,2.83,1.17s2.05-0.39,2.83-1.17
	C55.39,51.75,55.39,49.22,53.83,47.66z M5,24.6C5,13.79,13.79,5,24.6,5s19.6,8.79,19.6,19.6c0,5.11-1.98,9.75-5.2,13.25
	c-0.12,0.09-0.24,0.18-0.35,0.29c-0.17,0.17-0.3,0.35-0.44,0.53c-3.53,3.42-8.33,5.53-13.61,5.53C13.79,44.19,5,35.4,5,24.6z"/>
</svg>
