<?xml version="1.0" encoding="utf-8"?>
<!-- Generator: Adobe Illustrator 26.5.0, SVG Export Plug-In . SVG Version: 6.00 Build 0)  -->
<svg version="1.1" id="Layer_1" xmlns="http://www.w3.org/2000/svg" xmlns:xlink="http://www.w3.org/1999/xlink" x="0px" y="0px"
	 viewBox="0 0 105 105" style="enable-background:new 0 0 105 105;" xml:space="preserve">
<style type="text/css">
	.st0{fill-rule:evenodd;clip-rule:evenodd;fill:#3A7867;}
	.st1{fill:none;stroke:#FFFFFF;stroke-width:3;}
	.st2{fill:#FFFFFF;}
</style>
<g>
	<circle class="st0" cx="52.5" cy="52.5" r="52.5"/>
	<line class="st1" x1="14.11" y1="76.78" x2="90.29" y2="77.08"/>
	<path class="st2" d="M29.83,58.69c0.03-1.5-1.17-2.74-2.67-2.77c-1.5-0.03-2.74,1.17-2.77,2.67c-0.03,1.5,1.17,2.74,2.67,2.77
		C28.56,61.39,29.8,60.19,29.83,58.69z M27.71,76.19l0.3-17.53l-1.81-0.03l-0.3,17.53L27.71,76.19z"/>
	<path class="st2" d="M39.8,64.45c0.04-1.5-1.15-2.75-2.65-2.79c-1.5-0.04-2.75,1.15-2.79,2.65c-0.04,1.5,1.15,2.75,2.65,2.79
		C38.51,67.14,39.76,65.96,39.8,64.45z M37.69,76.2l0.3-11.79l-1.81-0.05l-0.3,11.79L37.69,76.2z"/>
	<path class="st2" d="M49.78,12.4c0.01-1.5-1.21-2.73-2.71-2.73c-1.5-0.01-2.73,1.21-2.73,2.71c-0.01,1.5,1.21,2.73,2.71,2.73
		C48.55,15.12,49.77,13.9,49.78,12.4z M47.66,76.18l0.3-63.79l-1.81-0.01l-0.3,63.79L47.66,76.18z"/>
	<path class="st2" d="M59.76,32.06c0.01-1.5-1.2-2.73-2.7-2.74c-1.5-0.01-2.73,1.2-2.74,2.7c-0.01,1.5,1.2,2.73,2.7,2.74
		C58.52,34.77,59.74,33.56,59.76,32.06z M57.64,76.18l0.3-44.14l-1.81-0.01l-0.3,44.14L57.64,76.18z"/>
	<path class="st2" d="M69.73,64.45c0.04-1.5-1.15-2.75-2.65-2.79c-1.5-0.04-2.75,1.15-2.79,2.65c-0.04,1.5,1.15,2.75,2.65,2.79
		C68.44,67.14,69.69,65.96,69.73,64.45z M67.61,76.2l0.3-11.79l-1.81-0.05l-0.3,11.79L67.61,76.2z"/>
	<path class="st2" d="M79.71,49.3c0.02-1.5-1.19-2.73-2.69-2.75c-1.5-0.02-2.73,1.19-2.75,2.69c-0.02,1.5,1.19,2.73,2.69,2.75
		C78.46,52.01,79.69,50.8,79.71,49.3z M77.59,76.18l0.3-26.91l-1.81-0.02l-0.3,26.91L77.59,76.18z"/>
	<path class="st2" d="M89.68,68.72c0.06-1.5-1.11-2.77-2.61-2.83c-1.5-0.06-2.77,1.11-2.83,2.61s1.11,2.77,2.61,2.83
		C88.36,71.39,89.62,70.23,89.68,68.72z M87.57,76.21l0.3-7.56l-1.81-0.07l-0.3,7.56L87.57,76.21z"/>
	<path class="st2" d="M19.85,68.72c0.06-1.5-1.11-2.77-2.61-2.83s-2.77,1.11-2.83,2.61c-0.06,1.5,1.11,2.77,2.61,2.83
		S19.79,70.23,19.85,68.72z M17.73,76.21l0.3-7.56l-1.81-0.07l-0.3,7.56L17.73,76.21z"/>
</g>
</svg>
