<?xml version="1.0" encoding="utf-8"?>
<!-- Generator: Adobe Illustrator 26.5.0, SVG Export Plug-In . SVG Version: 6.00 Build 0)  -->
<svg version="1.1" id="Layer_1" xmlns="http://www.w3.org/2000/svg" xmlns:xlink="http://www.w3.org/1999/xlink" x="0px" y="0px"
	 viewBox="0 0 105 105" style="enable-background:new 0 0 105 105;" xml:space="preserve">
<style type="text/css">
	.st0{fill-rule:evenodd;clip-rule:evenodd;fill:#4B325E;}
	.st1{fill:#FFFFFF;}
</style>
<g>
	<circle class="st0" cx="52.5" cy="52.5" r="52.5"/>
	<g>
		<path class="st1" d="M59.92,85.32H45.08v-4.9c-2.48-0.66-4.85-1.65-7.06-2.95l-3.49,3.49L24.05,70.46l3.56-3.55
			c-1.24-2.19-2.19-4.53-2.82-6.99h-5.1V45.08h5.24c0.66-2.37,1.63-4.65,2.88-6.79l-3.76-3.76l10.49-10.49l3.83,3.83
			c2.11-1.2,4.36-2.12,6.72-2.75v-5.44h14.84v5.44c2.36,0.63,4.61,1.55,6.72,2.75l3.83-3.83l10.49,10.49L77.2,38.3
			c1.25,2.13,2.22,4.41,2.88,6.79h5.24v14.84h-5.1c-0.63,2.46-1.58,4.8-2.82,6.99l3.55,3.55L70.46,80.95l-3.49-3.49
			c-2.21,1.3-4.58,2.29-7.06,2.95V85.32z M47.08,83.32h10.84v-4.47l0.77-0.18c2.8-0.67,5.47-1.78,7.91-3.31l0.67-0.42l3.19,3.19
			l7.66-7.66l-3.24-3.24l0.41-0.67c1.47-2.42,2.53-5.06,3.17-7.85l0.18-0.78h4.69V47.08h-4.8l-0.19-0.76
			c-0.67-2.7-1.77-5.27-3.25-7.65L74.66,38l3.46-3.46l-7.66-7.66l-3.51,3.51l-0.67-0.41c-2.34-1.42-4.9-2.47-7.59-3.11l-0.77-0.18
			v-5.01H47.08v5.01l-0.77,0.18c-2.69,0.64-5.25,1.69-7.59,3.11l-0.67,0.41l-3.51-3.51l-7.66,7.66L30.34,38l-0.42,0.67
			c-1.48,2.37-2.58,4.95-3.25,7.65l-0.19,0.76h-4.8v10.84h4.69l0.18,0.78c0.63,2.79,1.7,5.43,3.17,7.85l0.41,0.67l-3.24,3.24
			l7.66,7.66l3.19-3.19l0.67,0.42c2.44,1.53,5.11,2.64,7.91,3.31l0.77,0.18V83.32z"/>
	</g>
	<g>
		<g>
			<path class="st1" d="M40.23,59.52h-2.25l5.05-14.04h2.45l5.05,14.04h-2.25l-3.97-11.49h-0.11L40.23,59.52z M40.61,54.02h7.29
				v1.78h-7.29V54.02z"/>
		</g>
		<g>
			<path class="st1" d="M52.56,59.52V45.48h5c1.09,0,2,0.2,2.71,0.6s1.25,0.94,1.61,1.63s0.53,1.46,0.53,2.32
				c0,0.86-0.18,1.64-0.54,2.33c-0.36,0.69-0.9,1.23-1.62,1.63c-0.72,0.4-1.62,0.6-2.71,0.6h-3.44v-1.79h3.25
				c0.69,0,1.25-0.12,1.68-0.36s0.74-0.57,0.95-0.98s0.3-0.89,0.3-1.42s-0.1-1-0.3-1.41s-0.52-0.73-0.95-0.97
				c-0.43-0.23-1-0.35-1.7-0.35h-2.66v12.22H52.56z"/>
		</g>
		<g>
			<path class="st1" d="M67.01,45.48v14.04H64.9V45.48H67.01z"/>
		</g>
	</g>
</g>
</svg>
