<?xml version="1.0" encoding="utf-8"?>
<!-- Generator: Adobe Illustrator 26.5.0, SVG Export Plug-In . SVG Version: 6.00 Build 0)  -->
<svg version="1.1" id="Layer_1" xmlns="http://www.w3.org/2000/svg" xmlns:xlink="http://www.w3.org/1999/xlink" x="0px" y="0px"
	 viewBox="0 0 105 105" style="enable-background:new 0 0 105 105;" xml:space="preserve">
<style type="text/css">
	.st0{fill-rule:evenodd;clip-rule:evenodd;fill:#B83D47;}
	.st1{fill:#FFFFFF;}
	.st2{fill-rule:evenodd;clip-rule:evenodd;fill:#FFFFFF;}
	.st3{fill:none;stroke:#FFFFFF;}
</style>
<g>
	<circle class="st0" cx="52.5" cy="52.5" r="52.5"/>
	<path class="st1" d="M83.71,77.91l5.79,2.9l-5.79,2.9V77.91z M15.83,79.84l68.84,0v1.93l-68.84,0V79.84z"/>
	<path class="st1" d="M25.13,27.1l-2.87-5.8l-2.92,5.78L25.13,27.1z M22.9,86.93l0.3-60.8l-1.93-0.01l-0.3,60.8L22.9,86.93z"/>
	<circle class="st2" cx="30.3" cy="58.61" r="1.61"/>
	<circle class="st2" cx="36.74" cy="54.11" r="1.61"/>
	<circle class="st2" cx="30.3" cy="71.48" r="1.61"/>
	<circle class="st2" cx="47.03" cy="63.12" r="1.61"/>
	<circle class="st2" cx="43.17" cy="71.48" r="1.61"/>
	<circle class="st2" cx="59.9" cy="54.11" r="1.61"/>
	<circle class="st2" cx="47.03" cy="41.56" r="1.61"/>
	<circle class="st2" cx="56.68" cy="72.77" r="1.61"/>
	<circle class="st2" cx="66.33" cy="33.84" r="1.61"/>
	<circle class="st2" cx="59.9" cy="27.09" r="1.61"/>
	<circle class="st2" cx="56.68" cy="40.6" r="1.61"/>
	<circle class="st2" cx="49.28" cy="51.86" r="1.61"/>
	<circle class="st2" cx="77.59" cy="27.09" r="1.61"/>
	<circle class="st2" cx="69.23" cy="48.64" r="1.61"/>
	<circle class="st2" cx="36.74" cy="29.66" r="1.61"/>
	<circle class="st2" cx="62.47" cy="45.74" r="1.61"/>
	<circle class="st2" cx="36.74" cy="63.12" r="1.61"/>
	<circle class="st2" cx="55.72" cy="45.74" r="1.61"/>
	<line class="st3" x1="26.6" y1="74.22" x2="85.47" y2="18.24"/>
</g>
</svg>
