<?xml version="1.0" encoding="UTF-8" standalone="no"?>
<!-- Created with Inkscape (http://www.inkscape.org/) -->

<svg
   sodipodi:docname="catalog1.svg"
   inkscape:version="1.1 (c4e8f9e, 2021-05-24)"
   id="svg5"
   version="1.1"
   viewBox="0 0 185.34406 185.21054"
   height="185.21054mm"
   width="185.34406mm"
   xmlns:inkscape="http://www.inkscape.org/namespaces/inkscape"
   xmlns:sodipodi="http://sodipodi.sourceforge.net/DTD/sodipodi-0.dtd"
   xmlns="http://www.w3.org/2000/svg"
   xmlns:svg="http://www.w3.org/2000/svg">
  <sodipodi:namedview
     id="namedview7"
     pagecolor="#ffffff"
     bordercolor="#666666"
     borderopacity="1.0"
     inkscape:pageshadow="2"
     inkscape:pageopacity="0.0"
     inkscape:pagecheckerboard="0"
     inkscape:document-units="mm"
     showgrid="false"
     fit-margin-top="0"
     fit-margin-left="0"
     fit-margin-right="0"
     fit-margin-bottom="0"
     inkscape:zoom="0.67081229"
     inkscape:cx="361.50202"
     inkscape:cy="355.5391"
     inkscape:window-width="2560"
     inkscape:window-height="1387"
     inkscape:window-x="0"
     inkscape:window-y="25"
     inkscape:window-maximized="1"
     inkscape:current-layer="layer1" />
  <defs
     id="defs2" />
  <g
     inkscape:label="Layer 1"
     inkscape:groupmode="layer"
     id="layer1"
     transform="translate(141.83347,-109.10606)">
    <path
       style="fill:#ffffff;stroke-width:0.264583;fill-opacity:1;stroke:#000000"
       d="m -16.220565,160.66687 c 1.027599,-0.5314 1.143849,-1.14019 0.9759,-5.11083 -0.15397,-3.64041 -0.5836,-5.61933 -1.77631,-8.18194 -1.936589,-4.16087 -6.450449,-6.94306 -11.264515,-6.94306 h -1.905404 l 0.380627,-1.10477 c 0.487063,-1.41372 0.483123,-4.48782 -0.0078,-6.10248 -1.230421,-4.04673 -4.901337,-7.09737 -9.066252,-7.53431 -1.143855,-0.12 -1.443374,-0.0543 -1.918229,0.42051 -0.821354,0.82136 -0.756904,2.22365 0.134421,2.92477 0.383427,0.3016 1.008505,0.54953 1.389063,0.55095 1.095504,0.004 3.26273,1.14665 4.200141,2.2143 1.198758,1.36531 1.68184,2.67555 1.683126,4.56506 0.0013,1.84374 -0.396084,2.9546 -1.585651,4.43308 -0.955868,1.18804 -1.048319,2.05798 -0.298402,2.80789 0.478107,0.47811 0.881943,0.52917 4.185311,0.52917 4.125016,0 5.57766,0.31046 7.542637,1.612 2.719745,1.80149 3.881527,4.63479 4.058375,9.89739 0.144163,4.29 0.19559,4.52763 1.084222,5.0098 0.92598,0.50243 1.23784,0.5042 2.18876,0.0125 z"
       id="path1587" />
    <path
       style="fill:#ffffff;stroke-width:0.264583;fill-opacity:1;stroke:#000000"
       d="m -21.160344,160.52018 c 0.682458,-0.53682 0.69714,-0.61383 0.69714,-3.65703 0,-3.88757 -0.40549,-5.22112 -2.104067,-6.91971 -1.872661,-1.87266 -2.846968,-2.10406 -8.858876,-2.10406 -5.523319,0 -6.476267,-0.1564 -7.625791,-1.25156 -1.15111,-1.09667 -1.561529,-2.31727 -1.654083,-4.91931 -0.10015,-2.81554 -0.377944,-3.23136 -2.334088,-3.49386 -2.698678,-0.36215 -4.543088,-1.52161 -5.433372,-3.41561 -1.820685,-3.87334 0.680437,-7.98978 5.310791,-8.74071 1.043244,-0.16919 2.061985,-1.16342 2.061985,-2.01238 0,-0.2633 -0.284485,-0.80947 -0.63219,-1.2137 -0.629068,-0.73133 -0.640765,-0.73349 -2.366102,-0.43796 -3.65429,0.62596 -6.430749,2.5868 -7.906047,5.58356 -0.79893,1.62285 -0.869619,1.97166 -0.869619,4.29111 0,2.31945 0.07069,2.66826 0.869619,4.29112 0.541724,1.10039 1.339824,2.18423 2.116667,2.87446 1.266211,1.12504 3.525986,2.35213 4.340286,2.35684 0.60711,0.004 0.729498,0.26142 1.036068,2.1834 0.545703,3.42114 2.487129,6.06763 5.194104,7.08044 1.237938,0.46319 2.062708,0.52833 6.688453,0.52833 6.29504,0 7.064451,0.19035 7.920902,1.95954 0.425622,0.87922 0.541192,1.64059 0.541192,3.56535 0,2.62055 0.227788,3.36543 1.141776,3.73368 0.871077,0.35097 1.105736,0.3155 1.865252,-0.28194 z"
       id="path1585" />
    <path
       style="fill:#ffffff;stroke-width:0.264583;fill-opacity:1;stroke:#000000"
       d="m -15.303825,167.68314 v -5.42396 h -1.98438 -1.984374 l -0.07197,5.12524 c -0.05115,3.64234 0.01831,5.23404 0.24008,5.50125 0.22543,0.27162 0.796244,0.35454 2.056344,0.29871 l 1.7443,-0.0773 z"
       id="path1583" />
    <path
       style="fill:#ffffff;stroke-width:0.264583;fill-opacity:1;stroke:#000000"
       d="m -20.225193,172.87453 c 0.210127,-0.25319 0.280779,-1.93353 0.230836,-5.49011 l -0.07197,-5.12524 h -1.984375 -1.984376 l -0.07206,5.15158 c -0.03964,2.83336 -0.0136,5.30391 0.05784,5.4901 0.185197,0.48261 3.420208,0.46034 3.824108,-0.0263 z"
       id="path1581" />
    <path
       style="fill:#ffffff;stroke-width:0.264583;fill-opacity:1;stroke:#000000"
       d="m -25.357997,167.68314 v -5.42396 h -29.501041 -29.501041 l -0.07206,5.15158 c -0.03964,2.83336 -0.01341,5.30443 0.05828,5.49125 0.105244,0.27426 5.800736,0.32672 29.573104,0.27238 l 29.442758,-0.0673 z"
       id="path1579" />
    <path
       style="fill:#ffffff;stroke-width:0.264583;fill-opacity:1;stroke:#000000"
       d="m 16.578464,260.2873 v -1.32291 h -2.64584 -2.64583 v -2.11667 c 0,-1.68275 0.0795,-2.11667 0.38767,-2.11667 0.65804,0 2.20925,-1.56363 2.53729,-2.55761 0.41409,-1.2547 0.18385,-3.40047 -0.45697,-4.25877 -1.0535,-1.41105 -1.8436,-1.78258 -3.7909099,-1.78258 -1.9473,0 -2.7374,0.37153 -3.79091,1.78258 -0.64081,0.8583 -0.87105,3.00407 -0.45696,4.25877 0.32804,0.99398 1.87925,2.55761 2.53729,2.55761 0.30819,0 0.38767,0.43392 0.38767,2.11667 v 2.11667 h -7.14375 -7.14375 V 242.8248 c 0,-13.99955 0.0514,-16.13958 0.38766,-16.13958 0.65805,0 2.20925,-1.56363 2.5373,-2.55761 0.41409,-1.2547 0.18384,-3.40047 -0.45697,-4.25877 -1.0535,-1.41105 -1.84361,-1.78258 -3.79091,-1.78258 -1.9473,0 -2.73741,0.37153 -3.7909101,1.78258 -0.64081,0.8583 -0.87106,3.00407 -0.45697,4.25877 0.32805,0.99398 1.8792501,2.55761 2.5373001,2.55761 0.33626,0 0.38766,2.14003 0.38766,16.13958 v 16.13959 h -7.4083291 -7.408332 v -2.11667 c 0,-1.68275 0.07947,-2.11667 0.387667,-2.11667 0.658043,0 2.20925,-1.56363 2.537293,-2.55761 0.414089,-1.2547 0.183846,-3.40047 -0.456967,-4.25877 -1.053502,-1.41105 -1.843606,-1.78258 -3.790911,-1.78258 -1.947304,0 -2.737408,0.37153 -3.79091,1.78258 -0.640813,0.8583 -0.871056,3.00407 -0.456968,4.25877 0.328044,0.99398 1.879251,2.55761 2.537294,2.55761 0.308194,0 0.387667,0.43392 0.387667,2.11667 v 2.11667 h -7.14375 -7.143749 v -8.73125 c 0,-7.49257 0.055,-8.73125 0.387667,-8.73125 0.658043,0 2.20925,-1.56363 2.537293,-2.55762 0.414089,-1.25469 0.183846,-3.40047 -0.456967,-4.25877 -1.053502,-1.41105 -1.843606,-1.78257 -3.79091,-1.78257 -1.947304,0 -2.737408,0.37152 -3.79091,1.78257 -0.640813,0.8583 -0.871056,3.00408 -0.456968,4.25877 0.328044,0.99399 1.879251,2.55762 2.537294,2.55762 0.332668,0 0.387667,1.23868 0.387667,8.73125 v 8.73125 h -7.408333 -7.408333 v -5.02709 c 0,-4.23907 0.06077,-5.02708 0.387667,-5.02708 0.658043,0 2.20925,-1.56363 2.537294,-2.55761 0.414088,-1.2547 0.183845,-3.40047 -0.456968,-4.25877 -1.053502,-1.41105 -1.843606,-1.78258 -3.79091,-1.78258 -1.947304,0 -2.737408,0.37153 -3.79091,1.78258 -0.640813,0.8583 -0.871056,3.00407 -0.456967,4.25877 0.328043,0.99398 1.87925,2.55761 2.537293,2.55761 0.326898,0 0.387668,0.78801 0.387668,5.02708 v 5.02709 h -7.14375 -7.14375 V 242.8248 c 0,-13.99955 0.0514,-16.13958 0.387667,-16.13958 0.658043,0 2.20925,-1.56363 2.537294,-2.55761 0.414088,-1.2547 0.183845,-3.40047 -0.456968,-4.25877 -1.053502,-1.41105 -1.843606,-1.78258 -3.79091,-1.78258 -1.947304,0 -2.737408,0.37153 -3.79091,1.78258 -0.640813,0.8583 -0.871056,3.00407 -0.456967,4.25877 0.328043,0.99398 1.87925,2.55761 2.537293,2.55761 0.336264,0 0.387667,2.14003 0.387667,16.13958 v 16.13959 h -7.408333 -7.408333 v -30.69167 c 0,-26.78115 0.0494,-30.69167 0.387668,-30.69167 0.658042,0 2.209249,-1.56363 2.537293,-2.55761 0.414089,-1.2547 0.183846,-3.40047 -0.456967,-4.25877 -1.053502,-1.41105 -1.843606,-1.78258 -3.790911,-1.78258 -1.947304,0 -2.737408,0.37153 -3.79091,1.78258 -0.640813,0.8583 -0.871056,3.00407 -0.456967,4.25877 0.328044,0.99398 1.879251,2.55761 2.537293,2.55761 0.338273,0 0.387668,3.91052 0.387668,30.69167 v 30.69167 h -7.143753 -7.14375 v -8.73125 c 0,-7.49257 0.055,-8.73125 0.38767,-8.73125 0.65804,0 2.20925,-1.56363 2.53729,-2.55762 0.41409,-1.25469 0.18385,-3.40047 -0.45696,-4.25877 -1.0535,-1.41105 -1.84361,-1.78257 -3.79091,-1.78257 -1.94731,0 -2.73741,0.37152 -3.79091,1.78257 -0.64082,0.8583 -0.87106,3.00408 -0.45697,4.25877 0.32804,0.99399 1.87925,2.55762 2.53729,2.55762 0.33267,0 0.38767,1.23868 0.38767,8.73125 v 8.73125 h -1.5875 -1.5875 v 1.32291 1.32292 h 65.616665 65.616669 z"
       id="path1577" />
    <path
       style="fill:#ffffff;fill-opacity:1;stroke:#000000;stroke-width:0.264583"
       d="m -267.99409,295.32214 c -22.95089,-2.34469 -42.72085,-11.81372 -58.35379,-27.94914 -10.42612,-10.76124 -18.25247,-24.11818 -22.29456,-38.0493 -6.12225,-21.10039 -4.84765,-43.05808 3.65457,-62.95742 6.2573,-14.64516 16.57995,-27.80815 29.36878,-37.44984 13.62751,-10.27397 28.51755,-16.16154 46.30208,-18.30799 3.52685,-0.42566 15.37544,-0.42544 19.05,3.7e-4 22.53443,2.61123 41.48036,11.80261 56.89069,27.59982 4.49036,4.60309 7.54476,8.36366 10.93537,13.46361 7.88244,11.85627 12.7454,24.86108 14.74022,39.41917 0.64892,4.73584 0.79545,15.89594 0.27328,20.81381 -0.53167,5.00725 -1.27622,9.34624 -2.30793,13.44973 -6.68918,26.60525 -24.57575,48.75246 -49.04621,60.72913 -9.46481,4.6324 -18.50629,7.37365 -29.23646,8.86409 -3.61379,0.50197 -16.38318,0.74101 -19.97604,0.37396 z"
       id="path130" />
  </g>
</svg>
