<?xml version="1.0" encoding="utf-8"?>
<!-- Generator: Adobe Illustrator 28.2.0, SVG Export Plug-In . SVG Version: 6.00 Build 0)  -->
<svg version="1.1" baseProfile="tiny" id="mSigPortal_Color_Logo"
	 xmlns="http://www.w3.org/2000/svg" xmlns:xlink="http://www.w3.org/1999/xlink" x="0px" y="0px" viewBox="0 0 437 100"
	 overflow="visible" xml:space="preserve">
<g id="mSigPortal">
	<path fill="#606060" d="M137,57.5c0.9,0,1.7,0.2,2.4,0.5c0.7,0.4,1.2,0.9,1.6,1.6c0.4,0.7,0.6,1.7,0.6,2.8v6.5h-3.3v-6
		c0-0.9-0.2-1.6-0.6-2s-0.9-0.7-1.6-0.7c-0.5,0-0.9,0.1-1.3,0.3c-0.4,0.2-0.7,0.5-0.9,1c-0.2,0.4-0.3,1-0.3,1.7v5.7h-3.3v-6
		c0-0.9-0.2-1.6-0.6-2s-0.9-0.7-1.6-0.7c-0.5,0-0.9,0.1-1.3,0.3c-0.4,0.2-0.7,0.5-0.9,1c-0.2,0.4-0.3,1-0.3,1.7v5.7h-3.3V57.6h3.1
		v3.1l-0.6-0.9c0.4-0.8,0.9-1.4,1.7-1.8c0.7-0.4,1.5-0.6,2.5-0.6c1,0,1.9,0.3,2.7,0.8c0.8,0.5,1.3,1.3,1.5,2.4l-1.2-0.3
		c0.4-0.9,1-1.6,1.8-2.1S135.9,57.5,137,57.5z"/>
	<path fill="#606060" d="M149.6,69.2c-1.2,0-2.3-0.2-3.4-0.5c-1.1-0.3-1.9-0.7-2.6-1.2l1.2-2.6c0.6,0.4,1.4,0.8,2.2,1.1
		s1.7,0.4,2.6,0.4c0.7,0,1.2-0.1,1.6-0.2c0.4-0.1,0.7-0.3,0.9-0.6c0.2-0.2,0.3-0.5,0.3-0.8c0-0.4-0.2-0.7-0.5-0.9
		c-0.3-0.2-0.7-0.4-1.2-0.6s-1.1-0.3-1.7-0.4c-0.6-0.1-1.2-0.3-1.8-0.5c-0.6-0.2-1.2-0.4-1.7-0.8s-0.9-0.7-1.2-1.2s-0.5-1.1-0.5-1.9
		c0-0.8,0.2-1.6,0.7-2.3c0.5-0.7,1.1-1.2,2.1-1.7s2.1-0.6,3.5-0.6c0.9,0,1.8,0.1,2.7,0.3c0.9,0.2,1.7,0.5,2.4,1l-1,2.6
		c-0.7-0.4-1.4-0.7-2.1-0.9c-0.7-0.2-1.4-0.3-2-0.3s-1.2,0.1-1.6,0.2c-0.4,0.2-0.7,0.4-0.9,0.6c-0.2,0.2-0.3,0.5-0.3,0.9
		c0,0.4,0.2,0.7,0.5,0.9c0.3,0.2,0.7,0.4,1.2,0.6c0.5,0.1,1.1,0.3,1.7,0.4c0.6,0.1,1.2,0.3,1.8,0.5c0.6,0.2,1.2,0.4,1.7,0.7
		s0.9,0.7,1.2,1.2c0.3,0.5,0.5,1.1,0.5,1.9c0,0.8-0.2,1.6-0.7,2.3c-0.5,0.7-1.2,1.2-2.1,1.7C152.2,69,151,69.2,149.6,69.2z"/>
	<path fill="#606060" d="M159.6,56.1c-0.6,0-1.1-0.2-1.5-0.5s-0.6-0.8-0.6-1.3c0-0.5,0.2-1,0.6-1.3c0.4-0.3,0.9-0.5,1.5-0.5
		c0.6,0,1.1,0.2,1.5,0.5s0.6,0.8,0.6,1.3c0,0.5-0.2,1-0.6,1.4C160.7,55.9,160.2,56.1,159.6,56.1z M158,68.9V57.6h3.3v11.3H158z"/>
	<path fill="#606060" d="M169.1,68.4c-1,0-2-0.2-2.8-0.7c-0.8-0.5-1.5-1.1-2-1.9s-0.8-1.8-0.8-2.9c0-1.1,0.3-2.1,0.8-2.9
		c0.5-0.8,1.2-1.5,2-1.9c0.8-0.4,1.8-0.7,2.8-0.7c1,0,1.8,0.2,2.5,0.6c0.7,0.4,1.3,1,1.7,1.8c0.4,0.8,0.6,1.8,0.6,3.1
		c0,1.2-0.2,2.3-0.6,3.1c-0.4,0.8-1,1.4-1.7,1.8S170,68.4,169.1,68.4z M169.6,73.2c-1.1,0-2.1-0.1-3.1-0.4c-1-0.3-1.8-0.6-2.5-1.2
		l1.3-2.4c0.5,0.4,1.1,0.7,1.8,0.9s1.5,0.3,2.2,0.3c1.2,0,2-0.3,2.5-0.8s0.8-1.3,0.8-2.3v-1.7l0.2-2.8l0-2.9v-2.4h3.1v9.4
		c0,2.1-0.5,3.6-1.6,4.6C173.2,72.7,171.6,73.2,169.6,73.2z M169.7,65.7c0.6,0,1.1-0.1,1.5-0.3c0.4-0.2,0.8-0.6,1-1s0.4-0.9,0.4-1.4
		c0-0.6-0.1-1-0.4-1.5s-0.6-0.7-1-1c-0.4-0.2-1-0.3-1.5-0.3s-1.1,0.1-1.5,0.3c-0.4,0.2-0.8,0.6-1.1,1c-0.3,0.4-0.4,0.9-0.4,1.5
		c0,0.5,0.1,1,0.4,1.4c0.3,0.4,0.6,0.7,1.1,1C168.6,65.6,169.2,65.7,169.7,65.7z"/>
	<path fill="#606060" d="M179.2,68.9V54.2h6.4c1.3,0,2.4,0.2,3.4,0.6c1,0.4,1.7,1,2.2,1.8s0.8,1.8,0.8,2.9c0,1.1-0.3,2-0.8,2.8
		c-0.5,0.8-1.3,1.4-2.2,1.8c-1,0.4-2.1,0.6-3.4,0.6h-4.5l1.5-1.5v5.6H179.2z M182.6,63.7l-1.5-1.6h4.3c1,0,1.8-0.2,2.4-0.7
		c0.5-0.4,0.8-1.1,0.8-1.9c0-0.8-0.3-1.4-0.8-1.9c-0.5-0.4-1.3-0.7-2.4-0.7h-4.3l1.5-1.6V63.7z"/>
	<path fill="#606060" d="M199.5,69.1c-1.2,0-2.3-0.3-3.2-0.8c-0.9-0.5-1.7-1.2-2.2-2.1s-0.8-1.9-0.8-3c0-1.1,0.3-2.1,0.8-3
		s1.3-1.6,2.2-2.1c0.9-0.5,2-0.7,3.2-0.7c1.2,0,2.3,0.2,3.2,0.7c0.9,0.5,1.7,1.2,2.2,2c0.5,0.9,0.8,1.9,0.8,3c0,1.1-0.3,2.1-0.8,3
		c-0.5,0.9-1.3,1.6-2.2,2.1C201.7,68.9,200.7,69.1,199.5,69.1z M199.5,66.4c0.5,0,1-0.1,1.5-0.4c0.4-0.3,0.8-0.6,1-1.1
		s0.4-1,0.4-1.7c0-0.7-0.1-1.2-0.4-1.7s-0.6-0.8-1-1.1c-0.4-0.3-0.9-0.4-1.5-0.4s-1,0.1-1.5,0.4s-0.8,0.6-1,1.1
		c-0.3,0.5-0.4,1-0.4,1.7c0,0.6,0.1,1.2,0.4,1.7c0.3,0.5,0.6,0.8,1,1.1S198.9,66.4,199.5,66.4z"/>
	<path fill="#606060" d="M207.9,68.9V57.6h3.1v3.2l-0.4-0.9c0.3-0.8,0.9-1.4,1.6-1.8c0.7-0.4,1.6-0.6,2.7-0.6v3c-0.1,0-0.3,0-0.4,0
		c-0.1,0-0.2,0-0.4,0c-0.9,0-1.6,0.3-2.2,0.8c-0.6,0.5-0.8,1.3-0.8,2.4v5.3H207.9z"/>
	<path fill="#606060" d="M215.9,60.4v-2.5h7.8v2.5H215.9z M221.9,69.1c-1.3,0-2.4-0.3-3.1-1c-0.7-0.7-1.1-1.7-1.1-3v-9.9h3.3V65
		c0,0.5,0.1,0.8,0.4,1.1s0.6,0.4,1,0.4c0.5,0,1-0.1,1.3-0.4l0.9,2.3c-0.3,0.2-0.7,0.4-1.2,0.5C222.8,69.1,222.4,69.1,221.9,69.1z"/>
	<path fill="#606060" d="M229.9,69.1c-0.9,0-1.6-0.2-2.3-0.5c-0.6-0.3-1.1-0.7-1.4-1.2s-0.5-1.1-0.5-1.7c0-0.7,0.2-1.3,0.5-1.8
		c0.3-0.5,0.9-0.9,1.6-1.2s1.6-0.4,2.8-0.4h3v1.9h-2.6c-0.8,0-1.3,0.1-1.6,0.4s-0.4,0.6-0.4,0.9c0,0.4,0.2,0.8,0.5,1
		c0.3,0.2,0.8,0.4,1.4,0.4c0.5,0,1-0.1,1.5-0.4c0.4-0.3,0.7-0.6,0.9-1.1l0.5,1.5c-0.2,0.7-0.7,1.3-1.3,1.7
		C231.7,68.9,230.9,69.1,229.9,69.1z M233.3,68.9v-2.2l-0.2-0.5v-3.9c0-0.7-0.2-1.2-0.6-1.6c-0.4-0.4-1.1-0.6-2-0.6
		c-0.6,0-1.2,0.1-1.8,0.3c-0.6,0.2-1.1,0.4-1.5,0.8l-1.2-2.3c0.6-0.4,1.4-0.8,2.2-1s1.8-0.4,2.6-0.4c1.7,0,3.1,0.4,4,1.2
		c1,0.8,1.4,2.1,1.4,3.8v6.4H233.3z"/>
	<path fill="#606060" d="M239.3,68.9V53.4h3.3v15.6H239.3z"/>
</g>
<g id="NCI">
	<path fill="#BB0E3D" d="M130.8,31h2.5v11.2h-2.5l-5.3-7v7H123V31h2.3l5.5,7.2V31z"/>
	<path fill="#BB0E3D" d="M144.1,42.2l-1-2.4h-4.7l-1,2.4h-2.7l4.8-11.2h2.4l4.8,11.2H144.1z M140.7,34.3l-1.4,3.2h2.8L140.7,34.3z"
		/>
	<path fill="#BB0E3D" d="M151.9,33.2v9h-2.5v-9h-3.2V31h8.8v2.2H151.9z"/>
	<path fill="#BB0E3D" d="M156.9,31h2.5v11.2h-2.5V31z"/>
	<path fill="#BB0E3D" d="M171.6,40.6c-1.1,1.1-2.5,1.7-4.2,1.7s-3-0.6-4.2-1.7c-1.1-1.1-1.7-2.5-1.7-4.1c0-1.6,0.6-3,1.7-4.1
		c1.1-1.1,2.5-1.7,4.2-1.7s3,0.6,4.2,1.7c1.1,1.1,1.7,2.5,1.7,4.1C173.3,38.2,172.7,39.5,171.6,40.6z M170.7,36.5c0-1-0.3-1.8-1-2.6
		c-0.6-0.7-1.4-1.1-2.4-1.1s-1.7,0.4-2.4,1.1c-0.6,0.7-1,1.6-1,2.6c0,1,0.3,1.8,1,2.5c0.6,0.7,1.4,1,2.4,1s1.7-0.3,2.4-1
		C170.4,38.4,170.7,37.5,170.7,36.5z"/>
	<path fill="#BB0E3D" d="M183.2,31h2.5v11.2h-2.5l-5.3-7v7h-2.5V31h2.3l5.5,7.2V31z"/>
	<path fill="#BB0E3D" d="M196.4,42.2l-1-2.4h-4.7l-1,2.4H187l4.8-11.2h2.4l4.8,11.2H196.4z M193.1,34.3l-1.4,3.2h2.8L193.1,34.3z"/>
	<path fill="#BB0E3D" d="M200.4,42.2V31h2.5v9h4.8v2.2H200.4z"/>
	<path fill="#BB0E3D" d="M218.8,40c1.2,0,2.2-0.5,3-1.5l1.6,1.6c-1.3,1.4-2.8,2.1-4.5,2.1s-3.1-0.5-4.3-1.6
		c-1.1-1.1-1.7-2.5-1.7-4.1c0-1.7,0.6-3,1.7-4.2c1.1-1.1,2.5-1.7,4.2-1.7c1.8,0,3.4,0.7,4.6,2.1l-1.6,1.8c-0.8-1-1.8-1.5-2.9-1.5
		c-0.9,0-1.7,0.3-2.4,0.9c-0.7,0.6-1,1.4-1,2.5s0.3,1.9,0.9,2.5C217.2,39.7,217.9,40,218.8,40z"/>
	<path fill="#BB0E3D" d="M233.3,42.2l-1-2.4h-4.7l-1,2.4h-2.7l4.8-11.2h2.4l4.8,11.2H233.3z M229.9,34.3l-1.4,3.2h2.8L229.9,34.3z"
		/>
	<path fill="#BB0E3D" d="M245.1,31h2.5v11.2h-2.5l-5.3-7v7h-2.5V31h2.3l5.5,7.2V31z"/>
	<path fill="#BB0E3D" d="M255.5,40c1.2,0,2.2-0.5,3-1.5l1.6,1.6c-1.3,1.4-2.8,2.1-4.5,2.1s-3.1-0.5-4.3-1.6
		c-1.1-1.1-1.7-2.5-1.7-4.1c0-1.7,0.6-3,1.7-4.2c1.1-1.1,2.5-1.7,4.2-1.7c1.8,0,3.4,0.7,4.6,2.1l-1.6,1.8c-0.8-1-1.8-1.5-2.9-1.5
		c-0.9,0-1.7,0.3-2.4,0.9c-0.7,0.6-1,1.4-1,2.5s0.3,1.9,0.9,2.5C253.8,39.7,254.6,40,255.5,40z"/>
	<path fill="#BB0E3D" d="M270.1,31v2.2h-5.6v2.3h5v2.1h-5V40h5.7v2.2H262V31H270.1z"/>
	<path fill="#BB0E3D" d="M281.6,34.7c0,1.8-0.7,2.9-2.1,3.5l2.8,4h-3.1l-2.5-3.6H275v3.6h-2.5V31h4.2c1.7,0,3,0.3,3.7,0.9
		S281.6,33.4,281.6,34.7z M278.6,36c0.3-0.3,0.5-0.7,0.5-1.3s-0.2-1-0.5-1.2s-0.9-0.3-1.7-0.3H275v3.3h1.8
		C277.7,36.5,278.2,36.3,278.6,36z"/>
	<path fill="#BB0E3D" d="M288.4,31h2.5v11.2h-2.5V31z"/>
	<path fill="#BB0E3D" d="M301.4,31h2.5v11.2h-2.5l-5.3-7v7h-2.5V31h2.3l5.5,7.2V31z"/>
	<path fill="#BB0E3D" d="M309.3,33.2c-0.2,0.2-0.4,0.5-0.4,0.8s0.1,0.6,0.4,0.8c0.3,0.2,1,0.4,2,0.7s1.9,0.7,2.5,1.2
		c0.6,0.5,0.9,1.3,0.9,2.3c0,1-0.4,1.8-1.1,2.4s-1.7,0.9-3,0.9c-1.8,0-3.4-0.7-4.8-2l1.5-1.8c1.2,1.1,2.3,1.6,3.3,1.6
		c0.5,0,0.8-0.1,1.1-0.3c0.3-0.2,0.4-0.5,0.4-0.8s-0.1-0.6-0.4-0.8s-0.8-0.4-1.6-0.6c-1.3-0.3-2.3-0.7-2.9-1.2s-0.9-1.3-0.9-2.3
		s0.4-1.9,1.1-2.5c0.8-0.6,1.7-0.9,2.9-0.9c0.7,0,1.5,0.1,2.2,0.4c0.7,0.3,1.4,0.6,2,1.1l-1.3,1.8c-1-0.7-2-1.1-3-1.1
		C309.9,32.9,309.5,33,309.3,33.2z"/>
	<path fill="#BB0E3D" d="M321.5,33.2v9H319v-9h-3.2V31h8.8v2.2H321.5z"/>
	<path fill="#BB0E3D" d="M326.5,31h2.5v11.2h-2.5V31z"/>
	<path fill="#BB0E3D" d="M336.5,33.2v9H334v-9h-3.2V31h8.8v2.2H336.5z"/>
	<path fill="#BB0E3D" d="M344.4,39.3c0.4,0.5,1,0.8,1.7,0.8s1.3-0.3,1.7-0.8c0.4-0.5,0.6-1.2,0.6-2.1V31h2.5v6.3
		c0,1.6-0.4,2.9-1.3,3.7c-0.9,0.9-2,1.3-3.4,1.3c-1.4,0-2.5-0.4-3.4-1.3c-0.9-0.9-1.4-2.1-1.4-3.7V31h2.5v6.2
		C343.8,38.1,344,38.8,344.4,39.3z"/>
	<path fill="#BB0E3D" d="M358.2,33.2v9h-2.5v-9h-3.2V31h8.8v2.2H358.2z"/>
	<path fill="#BB0E3D" d="M371.3,31v2.2h-5.6v2.3h5v2.1h-5V40h5.7v2.2h-8.2V31H371.3z"/>
</g>
<g id="NIH_Luggage_Tag">
	<g>
		<path fill="#606061" d="M98,50L83,23H28.8c-3.2,0-5.8,2.6-5.8,5.8v42.4c0,3.2,2.6,5.8,5.8,5.8H83L98,50z"/>
		<path fill="#BA1F40" d="M96.5,25.8c-1.1-1.7-3-2.8-5-2.8H87l15.2,27L87,77h4.5c2.1,0,4-1.1,5-2.8L110,50L96.5,25.8z"/>
	</g>
	<g>
		<rect x="55" y="38" fill="#FFFFFF" width="4" height="24"/>
		<polygon fill="#FFFFFF" points="47,38 47,55.6 36,38 32,38 32,62 36,62 36,44.4 47,62 51,62 51,38 		"/>
		<polygon fill="#FFFFFF" points="78,38 78,48 67,48 67,38 63,38 63,62 67,62 67,52 78,52 78,62 82,62 82,38 		"/>
	</g>
</g>
<g>
</g>
<g>
</g>
<g>
</g>
<g>
</g>
<g>
</g>
<g>
</g>
</svg>
